<svg width="51" height="50" viewBox="0 0 51 50" fill="none" xmlns="http://www.w3.org/2000/svg">
<path d="M44.8248 7.8125H6.54358C6.32874 7.8125 6.15295 7.98828 6.15295 8.20312V11.3281C6.15295 11.543 6.32874 11.7188 6.54358 11.7188H44.8248C45.0397 11.7188 45.2155 11.543 45.2155 11.3281V8.20312C45.2155 7.98828 45.0397 7.8125 44.8248 7.8125ZM44.8248 38.2812H6.54358C6.32874 38.2812 6.15295 38.457 6.15295 38.6719V41.7969C6.15295 42.0117 6.32874 42.1875 6.54358 42.1875H44.8248C45.0397 42.1875 45.2155 42.0117 45.2155 41.7969V38.6719C45.2155 38.457 45.0397 38.2812 44.8248 38.2812ZM44.8248 23.0469H6.54358C6.32874 23.0469 6.15295 23.2227 6.15295 23.4375V26.5625C6.15295 26.7773 6.32874 26.9531 6.54358 26.9531H44.8248C45.0397 26.9531 45.2155 26.7773 45.2155 26.5625V23.4375C45.2155 23.2227 45.0397 23.0469 44.8248 23.0469Z" fill="black"/>
</svg>
